<?xml version="1.0" standalone="no"?><!DOCTYPE svg PUBLIC "-//W3C//DTD SVG 1.1//EN" "http://www.w3.org/Graphics/SVG/1.1/DTD/svg11.dtd"><svg t="1610813246247" class="icon" viewBox="0 0 1024 1024" version="1.1" xmlns="http://www.w3.org/2000/svg" p-id="2907" xmlns:xlink="http://www.w3.org/1999/xlink" width="200" height="200"><defs><style type="text/css"></style></defs><path d="M335.4 367.7c-16.2-16.2-42.4-16.2-58.6 0-16.2 16.2-16.2 42.4 0 58.6l206.8 206.8c16.4 16.1 42.7 16.1 59-0.2l372.8-372.8c16.2-16.2 16.2-42.4 0-58.6-16.2-16.2-42.4-16.2-58.6 0L513.1 545.3 335.4 367.7z" fill="#515151" p-id="2908"></path><path d="M886.1 637.2c-22.9 0-41.4 18.6-41.4 41.4v165.8h-663v-663h587.2c22.9 0 41.4-18.6 41.4-41.4 0-22.9-18.6-41.4-41.4-41.4H140.2c-22.9 0-41.4 18.6-41.4 41.4v745.9c0 22.9 18.6 41.4 41.4 41.4h745.9c22.9 0 41.4-18.6 41.4-41.4V678.7c0.1-22.9-18.5-41.5-41.4-41.5z" fill="#515151" p-id="2909"></path><path d="M886.1 430c22.9 0 41.4 18.6 41.4 41.4v41.4c0 22.9-18.6 41.4-41.4 41.4-22.9 0-41.4-18.6-41.4-41.4v-41.4c0-22.8 18.6-41.4 41.4-41.4z" fill="#515151" p-id="2910"></path></svg>