<?xml version="1.0" standalone="no"?><!DOCTYPE svg PUBLIC "-//W3C//DTD SVG 1.1//EN" "http://www.w3.org/Graphics/SVG/1.1/DTD/svg11.dtd"><svg t="1615256226807" class="icon" viewBox="0 0 1024 1024" version="1.1" xmlns="http://www.w3.org/2000/svg" p-id="4092" xmlns:xlink="http://www.w3.org/1999/xlink" width="200" height="200"><defs><style type="text/css"></style></defs><path d="M733.866667 601.6l17.066666-226.133333c55.466667-12.8 93.866667-64 93.866667-123.733334 0-72.533333-55.466667-128-128-128-68.266667 0-123.733333 55.466667-128 123.733334l-110.933333 34.133333C443.733333 213.333333 375.466667 166.4 294.4 166.4c-119.466667 0-213.333333 93.866667-213.333333 213.333333s93.866667 213.333333 213.333333 213.333334c42.666667 0 85.333333-12.8 119.466667-34.133334l119.466666 119.466667c-17.066667 25.6-25.6 55.466667-25.6 85.333333 0 93.866667 76.8 170.666667 170.666667 170.666667s170.666667-76.8 170.666667-170.666667c0-76.8-46.933333-136.533333-115.2-162.133333z m-12.8-392.533333c25.6 0 42.666667 17.066667 42.666666 42.666666s-17.066667 42.666667-42.666666 42.666667-42.666667-17.066667-42.666667-42.666667 17.066667-42.666667 42.666667-42.666666z m-102.4 115.2c12.8 17.066667 29.866667 29.866667 51.2 42.666666l-17.066667 226.133334c-21.333333 4.266667-38.4 12.8-55.466667 21.333333l-128-119.466667c21.333333-34.133333 34.133333-72.533333 34.133334-119.466666v-17.066667l115.2-34.133333z m-324.266667 183.466666c-72.533333 0-128-55.466667-128-128s55.466667-128 128-128 128 55.466667 128 128c0 68.266667-59.733333 128-128 128z m384 341.333334c-46.933333 0-85.333333-38.4-85.333333-85.333334s38.4-85.333333 85.333333-85.333333 85.333333 38.4 85.333333 85.333333-38.4 85.333333-85.333333 85.333334z" p-id="4093" fill="#e0620d"></path></svg>